<svg width="17" height="17" viewBox="0 0 17 17" fill="none" xmlns="http://www.w3.org/2000/svg">
<circle cx="8.5" cy="8.5" r="8.5" fill="var(--icon-foreground-color, white)"/>
<path fill-rule="evenodd" clip-rule="evenodd" d="M17 8.5C17 13.1944 13.1944 17 8.5 17C3.80558 17 0 13.1944 0 8.5C0 3.80558 3.80558 0 8.5 0C13.1944 0 17 3.80558 17 8.5ZM10.9803 5.33475H12.471L13.2639 12.6549H3.71722L4.52916 5.33475H6.01983C6.20379 3.91385 7.26312 2.85452 8.50006 2.85452C9.737 2.85452 10.7963 3.97094 10.9803 5.33475ZM10.365 5.26497C10.2381 4.21199 9.43252 3.46982 8.50006 3.46982C7.5676 3.46982 6.82543 4.28176 6.63513 5.26497H10.365ZM8.55715 9.17243C9.92095 9.11534 11.0374 7.99893 10.9803 6.63512H11.0057V6.50825H10.3777V6.63512C10.3777 7.69445 9.51498 8.55713 8.51274 8.55713C7.51051 8.55713 6.64782 7.69445 6.64782 6.63512V6.50825H6.01983V6.69221C6.01983 8.05602 7.13625 9.17243 8.50006 9.17243H8.55715Z" fill="var(--icon-bg-color, #FCB270)"/>
</svg>
